<svg width="45" height="45" viewBox="0 0 45 45" fill="none" xmlns="http://www.w3.org/2000/svg">
<circle cx="22.6" cy="22.25" r="20.5" stroke="#E63F3A" stroke-width="3"/>
<path d="M30.7317 30.3817C26.5923 34.5211 21.9028 37.2233 17.7264 38.2972C13.5123 39.3808 10.1157 38.7571 8.10429 36.7456C6.09289 34.7342 5.4691 31.3376 6.55272 27.1235C7.62665 22.9472 10.3289 18.2576 14.4683 14.1182C18.6077 9.97883 23.2972 7.27662 27.4735 6.2027C31.6876 5.11907 35.0843 5.74286 37.0957 7.75427C39.1071 9.76568 39.7309 13.1623 38.6472 17.3764C37.5733 21.5528 34.8711 26.2423 30.7317 30.3817Z" stroke="#E63F3A" stroke-width="3"/>
<path d="M30.7315 14.1182C34.8709 18.2576 37.5731 22.9471 38.647 27.1235C39.7307 31.3376 39.1069 34.7342 37.0955 36.7456C35.0841 38.757 31.6874 39.3808 27.4733 38.2972C23.297 37.2233 18.6074 34.5211 14.4681 30.3817C10.3287 26.2423 7.62644 21.5528 6.55252 17.3764C5.4689 13.1623 6.09268 9.76567 8.10409 7.75426C10.1155 5.74285 13.5121 5.11906 17.7262 6.20269C21.9026 7.27661 26.5921 9.97882 30.7315 14.1182Z" stroke="#E63F3A" stroke-width="3"/>
</svg>
